<svg id="Layer_1" data-name="Layer 1" xmlns="http://www.w3.org/2000/svg" viewBox="0 0 588.44727 140.31571"><defs><style>.cls-1,.cls-4{fill:#1c75bc;}.cls-2{fill:#f7941e;}.cls-3{fill:#262262;}.cls-4{opacity:0.35;}.cls-5{fill:#ed1c24;}.cls-11,.cls-6{fill:#fff;}.cls-6,.cls-9{opacity:0.5;}.cls-7{fill:#162b3c;}.cls-8{fill:#fbda00;}.cls-9{fill:#f15a29;}.cls-10{fill:#00a651;}</style></defs><title>Pinwheel-Issue-Tracker-logo-horizontal</title><path class="cls-1" d="M77.091,138.69543H88.70935c2.39147,0,3.458,1.09615,3.458,2.44848s-1.14523,2.44879-3.3,2.44879h-2.0565a2.80693,2.80693,0,0,0-2.96612,2.44871c0,1.35233,1.32081,2.44879,3.24842,2.44879h24.6762a2.68966,2.68966,0,0,1,2.81993,2.44848,2.60161,2.60161,0,0,1-2.81993,2.44871h-60.601c-1.53549,0-3.03509-1.01665-3.03509-2.44871,0-1.35233,1.40489-2.44848,3.03509-2.44848h7.4779c1.70481,0,3.09086-.90239,3.09086-2.44879,0-1.38966-1.10191-2.44871-3.09086-2.44871H26.10506c-1.76015,0-3.12557-.96146-3.12557-2.44879,0-1.51188,1.22336-2.44848,3.12557-2.44848H77.091Z" transform="translate(-22.97949 -30.21056)"/><path class="cls-2" d="M160.14624,144.287c2.24151,0,3.378-1.11308,3.378-2.79566,0-1.5441-1.19968-2.79589-3.34648-2.79589H149.0597c-2.34411,0-3.66749,1.061-3.66749,2.79589,0,1.5441,1.44176,2.79566,3.53089,2.79566h11.22313Z" transform="translate(-22.97949 -30.21056)"/><path class="cls-2" d="M140.88755,133.6154c2.24151,0,3.378-1.11308,3.378-2.79566,0-1.5441-1.19968-2.79589-3.34648-2.79589H119.4734c-2.34411,0-3.66749,1.061-3.66749,2.79589,0,1.5441,1.44176,2.79566,3.53089,2.79566h21.55075Z" transform="translate(-22.97949 -30.21056)"/><polygon class="cls-3" points="88.036 4.156 66.383 25.606 83.571 42.634 111.29 15.173 126.605 0.002 88.036 4.156"/><polygon class="cls-4" points="88.036 4.156 83.571 42.634 66.383 25.606 88.036 4.156"/><polygon class="cls-5" points="122.413 47.055 100.76 25.606 83.571 42.634 111.29 70.092 126.606 85.265 122.413 47.055"/><polygon class="cls-6" points="122.413 47.055 83.571 42.634 100.76 25.606 122.413 47.055"/><path class="cls-7" d="M106.55061,170.52626a2.62051,2.62051,0,0,1-2.63215-2.60775V71.35457a2.63226,2.63226,0,0,1,5.2643,0v96.56394A2.62056,2.62056,0,0,1,106.55061,170.52626Z" transform="translate(-22.97949 -30.21056)"/><polygon class="cls-8" points="83.571 42.634 55.851 70.092 40.535 85.265 79.107 81.109 100.76 59.66 83.571 42.634"/><polygon class="cls-9" points="79.107 81.109 83.571 42.634 100.76 59.66 79.107 81.109"/><polygon class="cls-10" points="55.851 15.173 40.535 0 44.729 38.21 66.381 59.66 83.571 42.634 55.851 15.173"/><polygon class="cls-6" points="44.729 38.21 83.571 42.634 66.381 59.66 44.729 38.21"/><path class="cls-11" d="M109.01841,75.289a3.513,3.513,0,0,1-4.937,0,3.43417,3.43417,0,0,1,0-4.89038,3.512,3.512,0,0,1,4.937,0A3.43417,3.43417,0,0,1,109.01841,75.289Z" transform="translate(-22.97949 -30.21056)"/><path class="cls-3" d="M211.2212,49.67493h20.40186q6.94189,0,11.03564,4.02734a12.92762,12.92762,0,0,1,4.09375,9.53027,13.33265,13.33265,0,0,1-4.04443,9.75781q-4.04517,4.062-11.01953,4.06152h-9.07129V95.423h-11.396v-45.748Zm11.396,8.38281V68.66809h5.30518q7.106,0,7.10645-5.30469,0-2.97949-1.89941-4.14258-1.8999-1.16309-6.48389-1.16309h-4.02832Z" transform="translate(-22.97949 -30.21056)"/><path class="cls-3" d="M252.98031,54.45618a5.33766,5.33766,0,1,1,5.3374,5.37012,5.11069,5.11069,0,0,1-3.76562-1.58789A5.19083,5.19083,0,0,1,252.98031,54.45618Zm10.24951,10.05273V95.423h-9.72559V64.50891h9.72559Z" transform="translate(-22.97949 -30.21056)"/><path class="cls-3" d="M283.46216,64.50891v4.38867q4.28979-5.04346,10.05322-5.043a11.18426,11.18426,0,0,1,8.03955,3.08105q3.22559,3.082,3.22559,8.81836V95.423h-9.72559V76.56848q0-6.19629-4.814-6.19727-3.43872,0-6.77881,5.1084V95.423h-9.72607V64.50891h9.72607Z" transform="translate(-22.97949 -30.21056)"/><path class="cls-3" d="M334.71876,79.17981l-7.81641,16.832h-4.51514l-13.981-31.50293h9.92236l6.5332,17.0293,6.90625-17.0293h5.89307l6.84912,17.0293,6.50488-17.0293h9.95068L347.03712,96.01184h-4.63037Z" transform="translate(-22.97949 -30.21056)"/><path class="cls-3" d="M375.65723,49.67493V69.02844h0.13086q4.06055-5.17383,9.791-5.17383a11.14325,11.14325,0,0,1,8.13867,3.13086q3.19043,3.13037,3.19141,8.70313V95.423h-9.72461V77.74817q0-6.75439-5.01172-6.75488-3.30762,0-6.51562,4.68848V95.423h-9.72656v-45.748h9.72656Z" transform="translate(-22.97949 -30.21056)"/><path class="cls-3" d="M435.06055,85.82727v6.124a22.77061,22.77061,0,0,1-13.78711,4.06055q-8.15332,0-13.0332-4.376A14.80861,14.80861,0,0,1,403.36133,80.048a15.70466,15.70466,0,0,1,4.584-11.63672,15.88544,15.88544,0,0,1,11.69141-4.55664,15.4579,15.4579,0,0,1,11.707,4.79688q4.56738,4.79883,4.27344,12.85352H413.41407a8.86593,8.86593,0,0,0,2.98047,6.47559,10.795,10.795,0,0,0,7.2041,2.26758Q429.0669,90.24817,435.06055,85.82727Zm-21.4502-9.43066h13.42676q-0.78516-6.74561-6.71289-6.74609Q414.33155,69.65051,413.61036,76.39661Z" transform="translate(-22.97949 -30.21056)"/><path class="cls-3" d="M472.93311,85.82727v6.124A22.77061,22.77061,0,0,1,459.146,96.01184q-8.15332,0-13.0332-4.376A14.80861,14.80861,0,0,1,441.23389,80.048a15.70466,15.70466,0,0,1,4.584-11.63672,15.88544,15.88544,0,0,1,11.69141-4.55664,15.4579,15.4579,0,0,1,11.707,4.79688q4.56738,4.79883,4.27344,12.85352H451.28663a8.86593,8.86593,0,0,0,2.98047,6.47559,10.795,10.795,0,0,0,7.2041,2.26758Q466.93946,90.24817,472.93311,85.82727Zm-21.4502-9.43066h13.42676q-0.78516-6.74561-6.71289-6.74609Q452.20411,69.65051,451.48292,76.39661Z" transform="translate(-22.97949 -30.21056)"/><path class="cls-3" d="M489.91537,49.67493V95.423h-9.72559v-45.748h9.72559Z" transform="translate(-22.97949 -30.21056)"/><path class="cls-3" d="M222.55176,114.87707v45.748h-11.396v-45.748h11.396Z" transform="translate(-22.97949 -30.21056)"/><path class="cls-3" d="M251.96469,131.34875v6.91016q-5.56714-3.40576-10.31543-3.40625-3.50391,0-3.50391,2.38965a1.65633,1.65633,0,0,0,.73877,1.22852,34.2243,34.2243,0,0,0,5.64893,2.56152q4.91016,1.95557,6.94043,4.5127a8.81744,8.81744,0,0,1,2.03076,5.60547,8.98579,8.98579,0,0,1-3.2749,7.44141q-3.27539,2.62207-9.333,2.62207a25.91544,25.91544,0,0,1-11.06885-2.25879v-6.84473q5.95972,2.62061,9.98828,2.62012,4.71533,0,4.71533-2.28613a2.25044,2.25044,0,0,0-.87207-1.666q-0.873-.78369-5.8457-2.73047-4.97314-1.94531-6.80664-4.27246A8.38459,8.38459,0,0,1,232.6932,131.712a15.0232,15.0232,0,0,1,9.28369-2.65527A21.50033,21.50033,0,0,1,251.96469,131.34875Z" transform="translate(-22.97949 -30.21056)"/><path class="cls-3" d="M281.89014,131.34875v6.91016q-5.56714-3.40576-10.31543-3.40625-3.50391,0-3.50391,2.38965a1.65633,1.65633,0,0,0,.73877,1.22852,34.2243,34.2243,0,0,0,5.64893,2.56152q4.91016,1.95557,6.94043,4.5127a8.81744,8.81744,0,0,1,2.03076,5.60547,8.98579,8.98579,0,0,1-3.2749,7.44141q-3.27539,2.62207-9.333,2.62207a25.91544,25.91544,0,0,1-11.06885-2.25879v-6.84473q5.95972,2.62061,9.98828,2.62012,4.71533,0,4.71533-2.28613a2.25045,2.25045,0,0,0-.87207-1.666q-0.873-.78369-5.8457-2.73047-4.97314-1.94531-6.80664-4.27246a8.38459,8.38459,0,0,1,1.68652-12.06348,15.0232,15.0232,0,0,1,9.28369-2.65527A21.50033,21.50033,0,0,1,281.89014,131.34875Z" transform="translate(-22.97949 -30.21056)"/><path class="cls-3" d="M310.57715,160.62512v-4.4209q-4.29053,5.00977-9.98828,5.00977a11.1351,11.1351,0,0,1-8.18652-3.11035q-3.14429-3.11133-3.144-8.61328v-19.7793h9.72607v19.09961q0,5.88721,4.87939,5.88672a6.12893,6.12893,0,0,0,4.69922-2.1416q1.94824-2.1416,1.94824-3.15625V129.71106h9.7915v30.91406h-9.72559Z" transform="translate(-22.97949 -30.21056)"/><path class="cls-3" d="M358.51856,151.02942v6.124a22.76708,22.76708,0,0,1-13.78662,4.06055q-8.15405,0-13.0332-4.376a14.80737,14.80737,0,0,1-4.87939-11.58789,15.705,15.705,0,0,1,4.58447-11.63672,15.88508,15.88508,0,0,1,11.69092-4.55664,15.45642,15.45642,0,0,1,11.707,4.79688q4.56885,4.79883,4.27393,12.85352H336.87256a8.86951,8.86951,0,0,0,2.98047,6.47559,10.79408,10.79408,0,0,0,7.2041,2.26758Q352.52613,155.45032,358.51856,151.02942Zm-21.44922-9.43066h13.42627q-0.78589-6.74561-6.71289-6.74609Q337.78931,134.85266,337.06934,141.59875Z" transform="translate(-22.97949 -30.21056)"/><path class="cls-3" d="M416.31837,114.87707v8.38281H399.74805v37.36523H388.35157V123.25989H371.78126v-8.38281h44.53711Z" transform="translate(-22.97949 -30.21056)"/><path class="cls-3" d="M423.78419,129.71106v8.8418H423.915q4.22461-9.49658,9.85742-9.49609,2.68506,0,6.45117,2.81641l-2.68555,8.6123q-3.60205-2.29248-5.76367-2.293-3.37207,0-5.68164,4.18164-2.30859,4.18213-2.30859,4.87012v13.38086H414.0586V129.71106h9.72559Z" transform="translate(-22.97949 -30.21056)"/><path class="cls-3" d="M475.42676,152.99426v5.40332a18.26589,18.26589,0,0,1-9.10449,2.81641q-4.585,0-5.43555-3.4707a17.92883,17.92883,0,0,1-10.18457,3.4707,8.80848,8.80848,0,0,1-6.124-2.2793,6.95122,6.95122,0,0,1-2.52148-5.29687,8.57371,8.57371,0,0,1,2.60352-6.51074q2.603-2.47705,15.76758-6.37988,0.32813-5.17383-5.37012-5.17383-6.189,0-11.39648,5.17383v-7.9248a24.97779,24.97779,0,0,1,13.39453-3.76562q13.09717,0,13.09863,9.41016v14.09961q0,2.165,1.60449,2.16406Q472.97022,154.73059,475.42676,152.99426Zm-14.999.124v-7.49121a27.22231,27.22231,0,0,0-6.69629,3.07129,4.165,4.165,0,0,0-1.81738,3.4668,3.25315,3.25315,0,0,0,.917,2.31641,2.948,2.948,0,0,0,2.22656.96875A8.05472,8.05472,0,0,0,460.42774,153.11829Z" transform="translate(-22.97949 -30.21056)"/><path class="cls-3" d="M506.47169,152.1759v6.97559a30.93315,30.93315,0,0,1-10.44727,2.0625q-8.15332,0-13.0332-4.376a14.80861,14.80861,0,0,1-4.87891-11.58789A15.16318,15.16318,0,0,1,483.04,133.629a17.741,17.741,0,0,1,12.55859-4.57227A30.11275,30.11275,0,0,1,506.0127,131.087v7.2373a17.29074,17.29074,0,0,0-7.9248-2.06348,9.85821,9.85821,0,0,0-6.97559,2.42773,8.43132,8.43132,0,0,0-2.61914,6.49609,8.85585,8.85585,0,0,0,2.55371,6.61035,9.16812,9.16812,0,0,0,6.71387,2.50977Q500.83838,154.30481,506.47169,152.1759Z" transform="translate(-22.97949 -30.21056)"/><path class="cls-3" d="M522.38672,114.87707v30.127h0.13086l12.002-15.293h11.41309l-12.08594,15.293,12.60938,15.62109H534.55762l-12.04-15.22754h-0.13086v15.22754h-9.72559v-45.748h9.72559Z" transform="translate(-22.97949 -30.21056)"/><path class="cls-3" d="M578.98084,151.02942v6.124a22.77061,22.77061,0,0,1-13.78711,4.06055q-8.15332,0-13.0332-4.376a14.80861,14.80861,0,0,1-4.87891-11.58789,15.70466,15.70466,0,0,1,4.584-11.63672,15.88544,15.88544,0,0,1,11.69141-4.55664,15.4579,15.4579,0,0,1,11.707,4.79688q4.56738,4.79883,4.27344,12.85352H557.33435a8.86593,8.86593,0,0,0,2.98047,6.47559,10.795,10.795,0,0,0,7.2041,2.26758Q572.98719,155.45032,578.98084,151.02942Zm-21.4502-9.43066H570.9574q-0.78516-6.74561-6.71289-6.74609Q558.25184,134.85266,557.53064,141.59875Z" transform="translate(-22.97949 -30.21056)"/><path class="cls-3" d="M594.98731,129.71106v8.8418h0.13086q4.22461-9.49658,9.85742-9.49609,2.68506,0,6.45117,2.81641l-2.68555,8.6123q-3.60205-2.29248-5.76367-2.293-3.37207,0-5.68164,4.18164-2.30859,4.18213-2.30859,4.87012v13.38086h-9.72559V129.71106h9.72559Z" transform="translate(-22.97949 -30.21056)"/></svg>